<svg xmlns="http://www.w3.org/2000/svg" width="650" height="300" viewBox="0 0 650 300"><rect width="650" height="300" x="0" y="0" fill="hsl(222.2, 84%, 4.9%)"/><g fill="none" stroke="hsl(210, 40%, 83%)" stroke-dasharray="2 4" stroke-width="1" opacity=".45"><path d="M220 100 C 260 110, 270 138, 296 148"/><line x1="220" x2="290" y1="150" y2="150"/><path d="M220 200 C 260 190, 270 162, 296 152"/><line x1="356" x2="430" y1="150" y2="150"/></g><circle cx="393" cy="150" r="3.5" fill="hsl(246, 55%, 70%)" stroke="hsl(222.2, 84%, 4.9%)" stroke-width="1"/><g fill="hsl(210, 40%, 83%)" font-family="'Geist Mono', monospace" font-size="11" letter-spacing=".02em"><rect width="176" height="32" x="44" y="84" fill="hsl(222.2, 84%, 4.9%)" stroke="hsl(217.2, 32.6%, 27.5%)" rx="6"/><circle cx="60" cy="100" r="3" fill="hsl(246, 55%, 70%)"/><text x="74" y="104">trace · 0x9f2a</text><rect width="176" height="32" x="44" y="134" fill="hsl(222.2, 84%, 4.9%)" stroke="hsl(217.2, 32.6%, 27.5%)" rx="6"/><circle cx="60" cy="150" r="3" fill="hsl(246, 55%, 70%)"/><text x="74" y="154">score · 0.92</text><rect width="176" height="32" x="44" y="184" fill="hsl(222.2, 84%, 4.9%)" stroke="hsl(217.2, 32.6%, 27.5%)" rx="6"/><circle cx="60" cy="200" r="3" fill="hsl(246, 55%, 70%)"/><text x="74" y="204">prompt · v4</text></g><path fill="hsl(246, 55%, 70%)" stroke="hsl(246, 50%, 32%)" stroke-linejoin="round" stroke-width="1.25" d="M322 114 C 325 140, 332 147, 358 150 C 332 153, 325 160, 322 186 C 319 160, 312 153, 286 150 C 312 147, 319 140, 322 114 Z"/><path fill="hsl(222.2, 84%, 4.9%)" stroke="hsl(217.2, 32.6%, 27.5%)" d="M430 150 L416 142 L416 158 Z"/><rect width="176" height="144" x="430" y="78" fill="hsl(222.2, 84%, 4.9%)" stroke="hsl(217.2, 32.6%, 27.5%)" rx="8"/><text x="448" y="104" fill="hsl(215, 20.2%, 65.1%)" font-family="'Geist Mono', monospace" font-size="10" letter-spacing=".1em">ANSWER</text><g><rect width="140" height="7" x="448" y="118" fill="hsl(217.2, 32.6%, 27.5%)" rx="3.5"/><rect width="118" height="7" x="448" y="136" fill="hsl(217.2, 32.6%, 27.5%)" rx="3.5"/><rect width="132" height="7" x="448" y="154" fill="hsl(246, 55%, 70%)" rx="3.5"/><rect width="92" height="7" x="448" y="172" fill="hsl(217.2, 32.6%, 27.5%)" rx="3.5"/><rect width="6" height="10" x="544" y="171" fill="hsl(210, 40%, 83%)"/></g><g fill="none" stroke="hsl(210, 40%, 83%)" stroke-width="1.5" opacity=".4"><path d="M14 32 V14 H32"/><path d="M636 32 V14 H618"/><path d="M14 268 V286 H32"/><path d="M636 268 V286 H618"/></g></svg>