<svg xmlns="http://www.w3.org/2000/svg" width="1200" height="700" fill="none" viewBox="0 0 1200 700"><rect width="1200" height="700" fill="#F8FAFC"/><rect width="1136" height="644" x="32" y="28" fill="#fff" stroke="#E2E8F0" stroke-width="2" rx="18"/><rect width="1136" height="72" x="32" y="28" fill="#F8FAFC" rx="18"/><path stroke="#E2E8F0" stroke-width="2" d="M32 100H1168"/><rect width="148" height="22" x="62" y="52" fill="#CBD5E1" rx="6"/><rect width="208" height="30" x="930" y="48" fill="#E2E8F0" rx="15"/><path stroke="#E2E8F0" stroke-width="2" d="M350 100V672"/><rect width="274" height="118" x="54" y="124" fill="#EFF6FF" stroke="#60A5FA" stroke-width="2" rx="12"/><rect width="126" height="16" x="74" y="146" fill="#334155" rx="5"/><rect width="204" height="10" x="74" y="176" fill="#94A3B8" rx="5"/><rect width="150" height="10" x="74" y="198" fill="#CBD5E1" rx="5"/><rect width="164" height="12" x="74" y="218" fill="#DBEAFE" rx="6"/><rect width="274" height="104" x="54" y="256" fill="#F8FAFC" stroke="#E2E8F0" rx="12"/><rect width="138" height="16" x="74" y="278" fill="#475569" rx="5"/><rect width="196" height="10" x="74" y="308" fill="#94A3B8" rx="5"/><rect width="164" height="12" x="74" y="332" fill="#E2E8F0" rx="6"/><rect width="274" height="104" x="54" y="374" fill="#F8FAFC" stroke="#E2E8F0" rx="12"/><rect width="112" height="16" x="74" y="396" fill="#475569" rx="5"/><rect width="210" height="10" x="74" y="426" fill="#94A3B8" rx="5"/><rect width="164" height="12" x="74" y="450" fill="#E2E8F0" rx="6"/><rect width="762" height="52" x="378" y="118" fill="#F8FAFC" stroke="#E2E8F0" rx="10"/><rect width="130" height="16" x="398" y="136" fill="#334155" rx="5"/><rect width="184" height="10" x="548" y="139" fill="#94A3B8" rx="5"/><rect width="164" height="10" x="954" y="139" fill="#94A3B8" rx="5"/><rect width="530" height="60" x="402" y="194" fill="#F1F5F9" rx="14"/><rect width="350" height="14" x="426" y="217" fill="#64748B" rx="7"/><rect width="704" height="116" x="402" y="276" fill="#ECFDF5" rx="14"/><rect width="624" height="13" x="426" y="302" fill="#475569" rx="6"/><rect width="572" height="13" x="426" y="330" fill="#64748B" rx="6"/><rect width="466" height="13" x="426" y="358" fill="#64748B" rx="6"/><rect width="762" height="52" x="378" y="430" fill="#F8FAFC" stroke="#E2E8F0" rx="10"/><rect width="130" height="16" x="398" y="448" fill="#334155" rx="5"/><rect width="184" height="10" x="548" y="451" fill="#94A3B8" rx="5"/><rect width="486" height="60" x="402" y="506" fill="#F1F5F9" rx="14"/><rect width="316" height="14" x="426" y="529" fill="#64748B" rx="7"/><rect width="704" height="60" x="402" y="588" fill="#ECFDF5" rx="14"/><rect width="590" height="14" x="426" y="611" fill="#64748B" rx="7"/></svg>